<?xml version="1.0" encoding="UTF-8"?>
<svg id="Layer_2" data-name="Layer 2" xmlns="http://www.w3.org/2000/svg" viewBox="0 0 604.36 86.4">
  <defs>
    <style>
      .cls-1 {
        fill: #6589bf;
      }

      .cls-2 {
        fill: #c68b5b;
      }

      .cls-3 {
        fill: #78aa58;
      }
    </style>
  </defs>
  <g id="Layer_1-2" data-name="Layer 1">
    <g>
      <path class="cls-1" d="M15.77,10.8V52.2h20.09v9H5.47V10.8H15.77Z"/>
      <path class="cls-1" d="M47.09,59.76c-2.69-1.44-4.76-3.44-6.23-6.01-1.46-2.57-2.2-5.6-2.2-9.11s.73-6.61,2.2-9.18c1.46-2.57,3.54-4.56,6.23-5.98,2.69-1.42,5.86-2.12,9.5-2.12s6.76,.66,9.32,1.98c2.57,1.32,4.52,3.24,5.87,5.76,1.34,2.52,2.02,5.56,2.02,9.11,0,.43-.01,.89-.04,1.37-.02,.48-.06,.86-.11,1.15h-29.66v-5.76h21.53l-2.52,3.31c.19-.29,.37-.68,.54-1.19,.17-.5,.25-.92,.25-1.26,0-1.63-.3-3.02-.9-4.18-.6-1.15-1.45-2.06-2.56-2.74-1.1-.67-2.4-1.01-3.89-1.01-1.82,0-3.35,.4-4.57,1.19s-2.16,1.97-2.81,3.53c-.65,1.56-1,3.49-1.04,5.8,0,2.21,.32,4.08,.97,5.62,.65,1.54,1.62,2.71,2.92,3.53s2.86,1.22,4.68,1.22c2.06,0,3.83-.4,5.29-1.19,1.46-.79,2.68-1.98,3.64-3.56l8.14,2.52c-1.73,3.12-4.02,5.46-6.88,7.02-2.86,1.56-6.28,2.34-10.26,2.34-3.6,0-6.74-.72-9.43-2.16Z"/>
      <path class="cls-1" d="M85.03,28.08l8.14,19.94,8.14-19.94h10.01l-18.14,36.58-18.14-36.58h10.01Z"/>
      <path class="cls-1" d="M120.89,59.76c-2.69-1.44-4.76-3.44-6.23-6.01-1.46-2.57-2.2-5.6-2.2-9.11s.73-6.61,2.2-9.18c1.46-2.57,3.54-4.56,6.23-5.98,2.69-1.42,5.86-2.12,9.5-2.12s6.76,.66,9.32,1.98c2.57,1.32,4.52,3.24,5.87,5.76,1.34,2.52,2.02,5.56,2.02,9.11,0,.43-.01,.89-.04,1.37-.02,.48-.06,.86-.11,1.15h-29.66v-5.76h21.53l-2.52,3.31c.19-.29,.37-.68,.54-1.19,.17-.5,.25-.92,.25-1.26,0-1.63-.3-3.02-.9-4.18s-1.45-2.06-2.56-2.74c-1.1-.67-2.4-1.01-3.89-1.01-1.83,0-3.35,.4-4.57,1.19s-2.16,1.97-2.81,3.53c-.65,1.56-1,3.49-1.04,5.8,0,2.21,.32,4.08,.97,5.62,.65,1.54,1.62,2.71,2.92,3.53s2.86,1.22,4.68,1.22c2.06,0,3.83-.4,5.29-1.19,1.46-.79,2.68-1.98,3.64-3.56l8.14,2.52c-1.73,3.12-4.02,5.46-6.88,7.02-2.86,1.56-6.28,2.34-10.26,2.34-3.6,0-6.75-.72-9.43-2.16Z"/>
      <path class="cls-1" d="M164.01,5.04V61.2h-9.36V5.04h9.36Z"/>
      <path class="cls-2" d="M195.01,35.57c1.61-2.59,3.79-4.61,6.55-6.05,2.76-1.44,5.89-2.16,9.4-2.16s6.63,.72,9.4,2.16c2.76,1.44,4.94,3.46,6.55,6.05,1.61,2.59,2.41,5.62,2.41,9.07s-.8,6.42-2.41,9.04c-1.61,2.62-3.79,4.64-6.55,6.08-2.76,1.44-5.89,2.16-9.4,2.16s-6.64-.72-9.4-2.16c-2.76-1.44-4.94-3.47-6.55-6.08-1.61-2.62-2.41-5.63-2.41-9.04s.8-6.48,2.41-9.07Zm8.28,14c.79,1.42,1.86,2.52,3.2,3.31,1.34,.79,2.83,1.19,4.46,1.19s3.12-.4,4.46-1.19c1.34-.79,2.41-1.9,3.2-3.31s1.19-3.06,1.19-4.93-.4-3.53-1.19-4.97-1.86-2.54-3.2-3.31c-1.34-.77-2.83-1.15-4.46-1.15s-3.12,.38-4.46,1.15c-1.34,.77-2.41,1.87-3.2,3.31s-1.19,3.1-1.19,4.97,.4,3.52,1.19,4.93Z"/>
      <path class="cls-2" d="M254.23,28.08v7.85h-20.74v-7.85h20.74Zm-2.63-15.16c-.6-.26-1.19-.4-1.76-.4-.72,0-1.33,.18-1.84,.54-.5,.36-.9,.95-1.19,1.76-.29,.82-.43,1.85-.43,3.1V61.2h-9V15.84c0-2.54,.43-4.68,1.3-6.41,.86-1.73,2.16-3.06,3.89-4,1.73-.94,3.84-1.4,6.34-1.4,1.49,0,2.76,.18,3.82,.54,1.05,.36,1.96,.8,2.7,1.33,.74,.53,1.33,1.03,1.76,1.51l-3.96,6.98c-.48-.72-1.02-1.21-1.62-1.48Z"/>
      <path class="cls-3" d="M306.72,34.27h24.84c.14,3.84-.3,7.46-1.33,10.87-1.03,3.41-2.64,6.42-4.82,9.04-2.18,2.62-4.88,4.67-8.1,6.16-3.22,1.49-6.89,2.23-11.02,2.23-3.89,0-7.48-.65-10.76-1.94-3.29-1.3-6.14-3.12-8.57-5.47-2.42-2.35-4.3-5.16-5.62-8.42-1.32-3.26-1.98-6.84-1.98-10.73s.68-7.45,2.05-10.69c1.37-3.24,3.28-6.01,5.72-8.32s5.33-4.08,8.64-5.33c3.31-1.25,6.91-1.87,10.8-1.87,3.46,0,6.56,.48,9.32,1.44,2.76,.96,5.21,2.29,7.34,4,2.14,1.7,3.97,3.73,5.51,6.08l-8.78,5.11c-1.25-2.21-2.99-4-5.22-5.36-2.23-1.37-4.96-2.05-8.17-2.05-3.02,0-5.78,.68-8.28,2.05-2.5,1.37-4.48,3.32-5.94,5.87-1.46,2.54-2.2,5.57-2.2,9.07s.72,6.49,2.16,9.11c1.44,2.62,3.4,4.64,5.87,6.08,2.47,1.44,5.27,2.16,8.39,2.16,2.06,0,3.91-.28,5.54-.83s3.04-1.33,4.21-2.34c1.17-1.01,2.17-2.16,2.99-3.46,.82-1.3,1.44-2.71,1.87-4.25h-14.47v-8.21Z"/>
      <path class="cls-3" d="M346.46,53.39c.48,.7,1.14,1.22,1.98,1.58,.84,.36,1.76,.54,2.77,.54,1.44,0,2.74-.3,3.89-.9,1.15-.6,2.09-1.46,2.81-2.59,.72-1.13,1.08-2.48,1.08-4.07l1.15,4.32c0,2.11-.59,3.89-1.76,5.33-1.18,1.44-2.69,2.52-4.54,3.24-1.85,.72-3.78,1.08-5.8,1.08s-3.99-.41-5.76-1.22c-1.78-.82-3.2-2-4.28-3.56-1.08-1.56-1.62-3.47-1.62-5.72,0-3.22,1.13-5.76,3.38-7.63,2.26-1.87,5.45-2.81,9.58-2.81,2.11,0,3.97,.22,5.58,.65,1.61,.43,2.96,.96,4.07,1.58,1.1,.62,1.9,1.22,2.38,1.8v4.32c-1.3-.96-2.75-1.68-4.36-2.16-1.61-.48-3.3-.72-5.08-.72-1.44,0-2.62,.18-3.53,.54-.91,.36-1.58,.86-2.02,1.51-.43,.65-.65,1.45-.65,2.41s.24,1.79,.72,2.48Zm-7.78-22.28c1.73-.91,3.84-1.79,6.34-2.63,2.5-.84,5.28-1.26,8.35-1.26,2.83,0,5.35,.41,7.56,1.22,2.21,.82,3.94,2,5.18,3.56,1.25,1.56,1.87,3.47,1.87,5.72v23.47h-9v-21.53c0-.91-.14-1.69-.43-2.34s-.73-1.19-1.33-1.62c-.6-.43-1.31-.74-2.12-.94-.82-.19-1.73-.29-2.74-.29-1.54,0-3,.17-4.39,.5-1.39,.34-2.59,.74-3.6,1.22-1.01,.48-1.75,.89-2.23,1.22l-3.46-6.34Z"/>
      <path class="cls-3" d="M387.57,53.24c.86,1.18,2.26,1.76,4.18,1.76,1.34,0,2.51-.28,3.49-.83,.98-.55,1.75-1.33,2.3-2.34,.55-1.01,.83-2.21,.83-3.6V28.08h9.29V61.2h-9.29v-5.04c-1.06,1.87-2.4,3.3-4.03,4.28-1.63,.98-3.62,1.48-5.98,1.48-3.94,0-6.88-1.13-8.82-3.38-1.94-2.26-2.92-5.35-2.92-9.29V28.08h9.65v20.16c0,2.16,.43,3.83,1.3,5Z"/>
      <path class="cls-3" d="M422.42,52.88c1.2,.79,2.34,1.38,3.42,1.76s2.1,.58,3.06,.58c1.25,0,2.21-.28,2.88-.83,.67-.55,1.01-1.31,1.01-2.27,0-.86-.28-1.6-.83-2.2-.55-.6-1.36-1.14-2.41-1.62-1.06-.48-2.4-.98-4.03-1.51-1.54-.58-3.02-1.26-4.46-2.05-1.44-.79-2.63-1.85-3.56-3.17-.94-1.32-1.4-3.01-1.4-5.08s.53-3.64,1.58-5c1.05-1.37,2.48-2.4,4.28-3.1,1.8-.7,3.8-1.04,6.01-1.04,1.87,0,3.62,.24,5.26,.72,1.63,.48,3.14,1.12,4.54,1.91,1.39,.79,2.62,1.72,3.67,2.77l-4.1,5.76c-1.2-1.3-2.63-2.35-4.28-3.17-1.66-.82-3.28-1.22-4.86-1.22-1.06,0-1.88,.2-2.48,.61-.6,.41-.9,1.02-.9,1.84,0,.72,.3,1.36,.9,1.91,.6,.55,1.46,1.04,2.59,1.48,1.13,.43,2.41,.96,3.85,1.58,1.78,.67,3.42,1.43,4.93,2.27,1.51,.84,2.72,1.88,3.64,3.13,.91,1.25,1.37,2.88,1.37,4.9,0,3.31-1.08,5.89-3.24,7.74-2.16,1.85-5.14,2.77-8.93,2.77-2.35,0-4.5-.31-6.44-.94-1.94-.62-3.7-1.45-5.26-2.48-1.56-1.03-2.96-2.15-4.21-3.35l4.54-5.83c1.39,1.3,2.69,2.34,3.89,3.13Z"/>
      <path class="cls-3" d="M454.03,52.88c1.2,.79,2.34,1.38,3.42,1.76s2.1,.58,3.06,.58c1.25,0,2.21-.28,2.88-.83,.67-.55,1.01-1.31,1.01-2.27,0-.86-.28-1.6-.83-2.2-.55-.6-1.36-1.14-2.41-1.62-1.06-.48-2.4-.98-4.03-1.51-1.54-.58-3.02-1.26-4.46-2.05-1.44-.79-2.63-1.85-3.56-3.17-.94-1.32-1.4-3.01-1.4-5.08s.53-3.64,1.58-5c1.05-1.37,2.48-2.4,4.28-3.1,1.8-.7,3.8-1.04,6.01-1.04,1.87,0,3.62,.24,5.26,.72,1.63,.48,3.14,1.12,4.54,1.91,1.39,.79,2.62,1.72,3.67,2.77l-4.1,5.76c-1.2-1.3-2.63-2.35-4.28-3.17-1.66-.82-3.28-1.22-4.86-1.22-1.06,0-1.88,.2-2.48,.61-.6,.41-.9,1.02-.9,1.84,0,.72,.3,1.36,.9,1.91,.6,.55,1.46,1.04,2.59,1.48,1.13,.43,2.41,.96,3.85,1.58,1.78,.67,3.42,1.43,4.93,2.27,1.51,.84,2.72,1.88,3.64,3.13,.91,1.25,1.37,2.88,1.37,4.9,0,3.31-1.08,5.89-3.24,7.74-2.16,1.85-5.14,2.77-8.93,2.77-2.35,0-4.5-.31-6.44-.94-1.94-.62-3.7-1.45-5.26-2.48-1.56-1.03-2.96-2.15-4.21-3.35l4.54-5.83c1.39,1.3,2.69,2.34,3.89,3.13Z"/>
      <path class="cls-3" d="M481.31,11.48c1.1-.98,2.42-1.48,3.96-1.48s2.84,.49,3.92,1.48c1.08,.98,1.62,2.24,1.62,3.78s-.54,2.74-1.62,3.74c-1.08,1.01-2.39,1.51-3.92,1.51s-2.86-.5-3.96-1.51c-1.1-1.01-1.66-2.26-1.66-3.74s.55-2.8,1.66-3.78Zm8.42,16.6V61.2h-9.07V28.08h9.07Z"/>
      <path class="cls-3" d="M506.94,53.39c.48,.7,1.14,1.22,1.98,1.58,.84,.36,1.76,.54,2.77,.54,1.44,0,2.74-.3,3.89-.9,1.15-.6,2.09-1.46,2.81-2.59,.72-1.13,1.08-2.48,1.08-4.07l1.15,4.32c0,2.11-.59,3.89-1.76,5.33-1.18,1.44-2.69,2.52-4.54,3.24-1.85,.72-3.78,1.08-5.8,1.08s-3.99-.41-5.76-1.22c-1.78-.82-3.2-2-4.28-3.56-1.08-1.56-1.62-3.47-1.62-5.72,0-3.22,1.13-5.76,3.38-7.63,2.26-1.87,5.45-2.81,9.58-2.81,2.11,0,3.97,.22,5.58,.65,1.61,.43,2.96,.96,4.07,1.58,1.1,.62,1.9,1.22,2.38,1.8v4.32c-1.3-.96-2.75-1.68-4.36-2.16-1.61-.48-3.3-.72-5.08-.72-1.44,0-2.62,.18-3.53,.54-.91,.36-1.58,.86-2.02,1.51-.43,.65-.65,1.45-.65,2.41s.24,1.79,.72,2.48Zm-7.78-22.28c1.73-.91,3.84-1.79,6.34-2.63,2.5-.84,5.28-1.26,8.35-1.26,2.83,0,5.35,.41,7.56,1.22,2.21,.82,3.94,2,5.18,3.56,1.25,1.56,1.87,3.47,1.87,5.72v23.47h-9v-21.53c0-.91-.14-1.69-.43-2.34s-.73-1.19-1.33-1.62c-.6-.43-1.31-.74-2.12-.94-.82-.19-1.73-.29-2.74-.29-1.54,0-3,.17-4.39,.5-1.39,.34-2.59,.74-3.6,1.22-1.01,.48-1.75,.89-2.23,1.22l-3.46-6.34Z"/>
      <path class="cls-3" d="M557.2,36c-.86-1.15-2.26-1.73-4.18-1.73-1.3,0-2.45,.28-3.46,.83-1.01,.55-1.78,1.33-2.3,2.34-.53,1.01-.79,2.21-.79,3.6v20.16h-9.36V28.08h9.36v5.04c1.01-1.87,2.34-3.3,4-4.28,1.66-.98,3.66-1.48,6.01-1.48,3.94,0,6.86,1.12,8.78,3.35,1.92,2.23,2.88,5.34,2.88,9.32v21.17h-9.65v-20.16c0-2.21-.43-3.89-1.3-5.04Z"/>
      <path class="cls-3" d="M582.9,52.88c1.2,.79,2.34,1.38,3.42,1.76s2.1,.58,3.06,.58c1.25,0,2.21-.28,2.88-.83,.67-.55,1.01-1.31,1.01-2.27,0-.86-.28-1.6-.83-2.2-.55-.6-1.36-1.14-2.41-1.62-1.06-.48-2.4-.98-4.03-1.51-1.54-.58-3.02-1.26-4.46-2.05-1.44-.79-2.63-1.85-3.56-3.17-.94-1.32-1.4-3.01-1.4-5.08s.53-3.64,1.58-5c1.05-1.37,2.48-2.4,4.28-3.1,1.8-.7,3.8-1.04,6.01-1.04,1.87,0,3.62,.24,5.26,.72,1.63,.48,3.14,1.12,4.54,1.91,1.39,.79,2.62,1.72,3.67,2.77l-4.1,5.76c-1.2-1.3-2.63-2.35-4.28-3.17-1.66-.82-3.28-1.22-4.86-1.22-1.06,0-1.88,.2-2.48,.61-.6,.41-.9,1.02-.9,1.84,0,.72,.3,1.36,.9,1.91,.6,.55,1.46,1.04,2.59,1.48,1.13,.43,2.41,.96,3.85,1.58,1.78,.67,3.42,1.43,4.93,2.27,1.51,.84,2.72,1.88,3.64,3.13,.91,1.25,1.37,2.88,1.37,4.9,0,3.31-1.08,5.89-3.24,7.74-2.16,1.85-5.14,2.77-8.93,2.77-2.35,0-4.5-.31-6.44-.94-1.94-.62-3.7-1.45-5.26-2.48-1.56-1.03-2.96-2.15-4.21-3.35l4.54-5.83c1.39,1.3,2.69,2.34,3.89,3.13Z"/>
    </g>
  </g>
</svg>